<?xml version="1.0" encoding="UTF-8"?>
<svg id="Capa_2" data-name="Capa 2" xmlns="http://www.w3.org/2000/svg" viewBox="0 0 73.01 75.77">
  <defs>
    <style>
      .cls-1 {
        fill: #fff;
        stroke-width: 0px;
      }
    </style>
  </defs>
  <g id="Layer_1" data-name="Layer 1">
    <g>
      <path class="cls-1" d="M40.54,13.9c.18.24.23.5.17.81-.09.44-.41.87-.87,1.18-.43.29-.99.49-1.7.6-.12.02-.2.03-.27.03-.02,0-.04,0-.05,0-.02-.05-.05-.14-.09-.27-.15-.56-.28-1.14-.39-1.71-.08-.45-.14-.91,0-1.19.15-.31.59-.44.96-.44.05,0,.11,0,.16,0,.74.08,1.67.42,2.08.98Z"/>
      <path class="cls-1" d="M13.01,75.77c-.07-.01-.14-.02-.22-.02h0c.08,0,.15,0,.22.02Z"/>
      <path class="cls-1" d="M24.91,74.76h0c-.15,0-.3.01-.45.03.14-.02.29-.03.45-.03Z"/>
      <rect class="cls-1" x="12.53" y="75.6" height=".14" transform="translate(-20.6 6.49) rotate(-16.19)"/>
      <path class="cls-1" d="M26.92,75.22h0c-.07-.03-.15-.07-.22-.09.07.03.15.06.22.09Z"/>
      <polygon class="cls-1" points="2.93 72.54 2.93 72.54 2.95 72.62 2.93 72.54"/>
      <path class="cls-1" d="M4.37,72.67c.12.03.25.07.37.12.1.04.2.08.3.12h0c-.1-.04-.2-.09-.3-.12-.13-.05-.25-.08-.37-.12Z"/>
      <path class="cls-1" d="M0,29.36s0,0,0,0c0,.2,0,.39.02.57,0,.09.01.17.02.26.01.16.03.31.04.44.14,1.42.29,2.85.45,4.28s.33,2.86.51,4.28c.05.36.09.72.14,1.07,0,.05.01.1.02.15.08.55.17,1.09.27,1.63.04.19.07.37.11.56.24,1.11.55,2.18,1,3.2.07.17.15.34.24.5.22.44.47.87.75,1.29.04.05.07.11.11.16.04.06.09.11.13.17,1.44,1.96,3.66,3.55,6.63,4.71.71.28,1.43.53,2.15.75.36.11.72.22,1.08.33.36.11.71.21,1.07.31.11.03.23.07.34.1.89.26,1.79.53,2.66.82,1.54.53,3.03,1.17,4.49,1.89.49.24.97.49,1.45.74,1.93,1.02,3.84,2.15,5.8,3.31.48.29.97.57,1.46.86.49.29.98.58,1.48.86.99.57,2,1.13,3.01,1.67.34.18.69.36,1.03.53.92.46,1.83.87,2.73,1.25.19.08.39.16.58.24,1.56.63,3.07,1.13,4.55,1.51,1.25.32,2.47.55,3.66.69.89.1,1.76.15,2.61.15h0c.47,0,.93-.02,1.39-.05.92-.06,1.82-.18,2.69-.37.44-.09.87-.2,1.29-.32,2.13-.61,4.4-1.97,5.21-4.08.19-.49.3-1.01.31-1.58,0-.39-.03-.76-.1-1.13-.08-.37-.2-.72-.37-1.07.03-.4.04-.8.04-1.18-.01-.58-.07-1.13-.16-1.64-.09-.51-.23-.98-.4-1.39h0c-.06.91-.26,1.8-.58,2.66-.05-.05-.1-.1-.15-.15-.15-.15-.31-.29-.48-.44.02-.25.04-.5.06-.76.03-.5.05-1.01.03-1.52,0-.26-.02-.51-.05-.77h0s0,0,0,0c-.19.75-.47,1.43-.79,2.11-.04.09-.08.18-.13.27-.11-.07-.22-.15-.34-.22,0-.79-.08-1.58-.21-2.36-.08-.48-.2-.95-.33-1.42-.08-.29-.17-.58-.27-.87h0s0,0,0,0c-.07,1.28-.45,2.52-.92,3.72-.01,0-.02-.01-.03-.02-.19-.09-.38-.17-.57-.26.04-.53.07-1.06.06-1.58,0-.3-.03-.61-.06-.91-.03-.23-.05-.45-.1-.68h0c-.05.16-.1.31-.15.45-.12.33-.24.61-.37.89-.03.07-.06.13-.09.2-.11.23-.21.47-.32.74-.05.13-.1.26-.14.38-.17-.07-.33-.15-.5-.22-.09-.04-.18-.08-.28-.12,0-.27-.01-.54-.03-.81-.01-.29-.03-.58-.05-.86-.02-.28-.04-.55-.07-.81-.03-.27-.06-.53-.09-.78-.07.18-.15.36-.22.55-.29.71-.6,1.41-.96,2.09-.37-.17-.72-.33-1.08-.5.03-.54.04-1.08.03-1.61-.01-.54-.05-1.07-.13-1.59-.32.89-.66,1.77-1.01,2.64-.13-.07-.25-.14-.38-.21-.23-.13-.46-.25-.69-.38-.09-1.11-.19-2.23-.28-3.3-.15.42-.3.85-.46,1.27-.16.42-.33.83-.51,1.25-.26-.18-.52-.36-.78-.55-.02-.24-.05-.48-.09-.72-.1-.72-.23-1.43-.34-2.11-.07.45-.17.9-.29,1.34-.07.25-.13.5-.21.75-.22-.19-.44-.39-.66-.59.04-.54.07-1.08.07-1.71,0-.21,0-.43-.01-.65h0s0,0,0,0c-.29.7-.49,1.22-.74,1.71-.21-.21-.42-.42-.62-.63.02-.13.03-.26.05-.39.02-.13.03-.27.05-.4.03-.28.06-.56.09-.87h0c-.22.38-.45.74-.69,1.1-.09-.11-.19-.22-.28-.33-.25-.3-.5-.6-.75-.92.05-.28.12-.56.2-.81.01-.04.02-.09.04-.13h0c-.07.09-.14.17-.21.25-.1.11-.2.22-.31.32-.51-.68-1-1.39-1.48-2.15-1.24-1.96-2.27-4.01-3.15-5.95-.45-.98-.86-1.94-1.24-2.84-.08-.19-.15-.38-.23-.58-.16-.4-.33-.84-.54-1.28-.14-.29-.31-.58-.5-.86-.14-.21-.31-.4-.49-.59-.16-.16-.33-.32-.52-.46-.03-.02-.05-.05-.08-.07-.45-.32-1.06-.59-1.72-.83-.08-.03-.16-.06-.24-.08-1.14-.38-2.37-.63-3.15-.72-.11-.01-.21-.03-.32-.04.06,0,.12,0,.18,0,.13,0,.28,0,.42,0,.15,0,.3,0,.45,0,.18,0,.36,0,.55,0,.16,0,.31,0,.47,0,.19,0,.38,0,.57-.01.16,0,.32,0,.49,0,.2,0,.4-.01.6-.02.16,0,.32,0,.49-.01.21,0,.42-.02.64-.02.16,0,.32-.01.48-.02.23-.01.46-.02.69-.03.15,0,.29-.01.44-.02.26-.01.52-.03.78-.05.12,0,.23-.01.35-.02.37-.03.75-.06,1.12-.09.82-.07,1.64-.17,2.46-.28.1.89.21,1.78.31,2.67.12-.09.23-.19.34-.29.75-.72,1.18-1.68,1.55-2.68.05.83.11,1.67.16,2.5h0s0,0,0,0c.14-.19.29-.39.46-.6.28-.35.59-.71.92-1.02.24-.22.49-.42.75-.56.05.22.09.43.14.65.17.79.34,1.57.51,2.36h0c.64-.74,1.3-1.37,1.95-2.1.11.62.23,1.24.34,1.85.13.73.27,1.46.4,2.19h0c.39-.6.78-1.24,1.14-1.89.36-.66.69-1.33.96-1.99.22,1.32.44,2.65.66,3.97.34-1.65.87-3.51,1.39-5.11.19.92.38,1.85.56,2.77.15-.24.31-.5.48-.76s.34-.53.51-.79c.34-.53.68-1.06.99-1.55.27,1.4.54,2.8.81,4.2.18-.21.36-.44.53-.67.37-.5.72-1.04.99-1.6.08-.16.15-.33.22-.5.12-.3.22-.61.29-.92,0-.04.02-.07.03-.11.02.18.04.36.06.53.18,1.52.36,3.05.53,4.57h0s0,0,0,0c.75-2.15,1.56-4.38,2.6-6.41.11,1.58.23,3.15.34,4.73h0s0,0,0,0c.34-.65.63-1.31.89-2,.52-1.4.85-2.86.99-4.35.26,1.23.51,2.47.77,3.7.07.32.13.64.2.97.79-2.04,1.33-4.24,1.7-6.39.24,1.33.49,2.65.73,3.98.04-.08.08-.16.11-.24.09-.2.18-.39.26-.6.05-.12.09-.23.13-.35.11-.32.21-.65.29-.98.09-.38.16-.76.2-1.15.04-.38.06-.77.05-1.14.21.57.51,1.14.76,1.71.08.19.16.38.23.57.22-.42.41-.87.56-1.32.15-.45.27-.92.36-1.39.08.21.14.43.19.65.15.65.19,1.33.12,1.99,0,.01,0,.03,0,.04h0c.43-1.08.71-2.21.85-3.37.21.02.42.05.63.08.08.01.17.02.25.02h0c.23,0,.45-.05.65-.15.07-.03.13-.07.19-.11.12-.09.23-.19.32-.31.05-.06.09-.12.12-.19.04-.07.07-.14.09-.21.32-.9.49-1.85.54-2.82.05-1.21-.11-2.45-.46-3.66-.14-.48-.31-.96-.52-1.43-.51-1.17-1.21-2.29-2.09-3.29-.29-.33-.59-.64-.91-.95-.96-.91-2.08-1.71-3.32-2.4-.21-.11-.42-.22-.63-.33-1.5-.75-3.17-1.33-4.99-1.73-1.38-.31-2.71-.52-3.99-.66-.09-.01-.19-.02-.28-.03-.81-.09-1.6-.15-2.38-.2-.05,0-.1,0-.14,0-1.24-.07-2.44-.09-3.59-.1h0s-.05,0-.08,0c-.74.04-1.51.06-2.28.06,0,0,0,0-.01,0-1.2,0-2.4-.05-3.6-.13-3.2-.22-6.4-.71-9.56-1.29-.79-.15-1.58-.3-2.37-.45-.39-.08-.79-.16-1.18-.23-.78-.16-1.56-.32-2.34-.47l-4.52-.92-4.52-.92c-.12-.02-.3-.06-.54-.1-.13-.02-.28-.05-.44-.07-.15-.02-.31-.05-.48-.07-.26-.03-.53-.07-.82-.09-.29-.03-.58-.05-.88-.06C15.88,0,15.68,0,15.49,0h0c-.68,0-1.28.06-1.79.18-.17.04-.33.09-.48.14-.6.22-1.06.55-1.37.99-.07.09-.12.19-.18.28-.16.28-.27.55-.37.79-.01.03-.03.07-.05.11-.03.08-.07.16-.1.23-.02.03-.03.06-.05.09-.02,0-.05,0-.08,0-.16,0-.38-.03-.61-.06-.01,0-.02,0-.04,0-.16-.02-.33-.05-.51-.07-.18-.02-.37-.03-.56-.03-.13,0-.25,0-.37.02-.3.03-.59.09-.86.19-1.13.43-1.69,1.34-2.04,2.24-.15.38-.26.76-.36,1.1-.04.14-.08.28-.12.41-.07.22-.15.44-.24.65-.29.69-.68,1.36-1.11,2.04-.12.19-.24.37-.36.56-.23.35-.46.72-.68,1.09-.1.17-.2.33-.3.5-.59,1.04-1.08,2.13-1.46,3.26-.1.28-.18.57-.27.85-.41,1.43-.65,2.91-.72,4.4-.06,1.19,0,2.39.17,3.57.08.59.2,1.18.34,1.76.04.16.1.34.2.53-.31.33-.53.7-.7,1.09-.04.09-.07.17-.1.26-.1.27-.17.55-.22.82C.03,28.47,0,28.93,0,29.36ZM4.16,12.19c.97-1.7,2.23-3.27,2.82-5.14.03-.09.06-.19.09-.29.17-.58.34-1.2.64-1.7.05-.08.1-.16.16-.24.43-.11.95-.22,1.54-.31.98-.15,2.15-.28,3.37-.38.38-.03.78-.06,1.18-.08,1-.06,2.03-.12,2.94-.15.73-.03,1.38-.05,1.88-.07.62-.02,1.01-.03,1.01-.03,0,0-.75-.23-1.91-.47-.29-.06-.6-.13-.94-.19-1.01-.18-2.19-.33-3.4-.4-.26-.02-.53,0-.79.01.04-.1.09-.21.14-.31.05-.1.11-.2.17-.29.37-.53,1.35-.69,2.44-.69,1.28,0,2.72.23,3.46.39.46.09.89.18,1.29.26.2.04.4.08.59.12,2.49.51,4.16.85,7.15,1.45.54.11,1.07.22,1.61.33.22.08.45.17.69.26,1.04.38,2.24.9,3.55,1.38,1.31.48,2.71.99,4.14,1.45.72.21,1.45.39,2.17.56.72.16,1.44.3,2.14.41,1.4.22,2.73.24,3.86.2,1.13-.04,2.06-.24,2.7-.38.32-.07.56-.16.73-.2.17-.05.26-.08.26-.08,0,0-.09,0-.27.03-.17.02-.43.05-.75.06-.64.07-1.57.07-2.67.02-.82-.03-1.74-.15-2.72-.31-.33-.05-.66-.11-.99-.18-1.35-.25-2.77-.63-4.17-1.07-1.32-.38-2.63-.81-3.87-1.22,4.29.77,8.61,1.35,12.95,1.35.79,0,1.58-.02,2.37-.06,3.5.02,6.66.21,10.08.96.43.09.85.2,1.28.32.42.12.84.25,1.26.4.83.29,1.64.64,2.42,1.05.39.2.77.42,1.13.65.74.47,1.43.99,2.07,1.58.32.3.62.61.91.94.14.16.28.33.42.51,2.02,2.6,2.92,6.16,1.83,9.25-.03,0-.06,0-.09-.01,0-.07,0-.15,0-.23,0-.52-.07-1.17-.18-1.83-.04-.22-.08-.44-.13-.66-.21-.88-.51-1.71-.8-2.3-.03-.07-.07-.15-.1-.21-.23-.47-.4-.75-.4-.75,0,0,.06.24.13.62.01.06.02.13.03.2.01.07.02.15.03.23.09.63.14,1.48.08,2.3-.06.83-.22,1.62-.38,2.2-.03.1-.06.19-.08.28-.04,0-.07,0-.11,0-1.19,0-2.37.18-3.53.48l-.52-1.88-.9,2.32c-.48.17-.95.36-1.42.56-.56.25-1.11.51-1.67.78s-1.1.54-1.65.82c-.04-.15-.08-.29-.13-.44-.15-.49-.32-.97-.49-1.41-.17-.44-.34-.85-.49-1.19-.04-.09-.08-.17-.11-.24-.04-.08-.07-.15-.1-.22-.2-.41-.33-.65-.33-.65,0,0,.07.63.11,1.51.01.3.02.62.02.96,0,.45-.02.94-.06,1.41-.03.38-.07.75-.12,1.1-.48.23-.95.45-1.44.66-.24.1-.48.21-.73.3s-.49.19-.74.28c-.6.22-1.21.41-1.83.57-1.54.41-3.13.65-4.73.71-.32.01-.64.02-.96.02-1.47,0-2.94-.14-4.38-.43-.48-.1-.96-.21-1.43-.34-.31-.08-.62-.17-.92-.26-2.14-.64-4.19-1.37-6.46-1.42-.11,0-.22,0-.32,0-.5,0-1,.02-1.5.06-.75.06-1.5.15-2.25.26-.75.11-1.49.24-2.22.36-.71.12-1.33.19-1.93.22-.2,0-.4.01-.59.01s-.4,0-.61-.02c-.61-.03-1.25-.11-2-.23-1.92-.32-3.85-.58-5.79-.78-.02-.07-.04-.14-.05-.22-.08-.31-.16-.61-.24-.91-.36-1.27-.74-2.29-.74-2.29,0,0-.15,1.65-.49,3.24,0,0,0,.02,0,.03-1-.09-1.99-.16-2.99-.21s-2-.09-3-.12c-.13,0-.26,0-.38,0-.65,0-1.3.05-1.94.15-.02,0-.03-.01-.05-.02-.12-.04-.23-.08-.35-.13-.24-.08-.48-.16-.72-.23-.24-.07-.49-.13-.74-.18-.38-.07-.76-.12-1.14-.12-.15,0-.3,0-.44.02-.29.03-.56.09-.82.17-.13.04-.26.09-.38.14-1.04-4.28-.39-8.94,1.79-12.77ZM19.82,52.72c-1.47-.61-2.95-1.24-4.37-1.98-1.41-.74-2.75-1.6-3.93-2.67-.66-.6-1.25-1.25-1.79-1.95s-1.03-1.44-1.47-2.2c-.89-1.54-1.59-3.2-2.19-4.88.04.07.08.14.12.21.26.43.54.86.85,1.32.15.23.31.46.48.7.49.71,1.03,1.46,1.63,2.25.81,1.08,1.85,2.17,3.01,3.03.58.43,1.17.82,1.76,1.18.59.36,1.2.71,1.8,1.02,2.42,1.23,4.75,2.02,6.44,2.62,1.27.44,2.19.77,2.57.9.13.04.19.07.19.07,0,0-.25-.13-.7-.36s-1.1-.57-1.9-.98c-.2-.1-.41-.21-.62-.33-.43-.23-.89-.47-1.38-.74-1.21-.67-2.56-1.46-3.86-2.4-.52-.38-1.03-.77-1.53-1.2-.5-.43-.98-.87-1.42-1.32-.44-.45-.83-.93-1.17-1.42-.35-.49-.65-1-.92-1.53-.56-1.07-1.06-2.14-1.46-3.08-.2-.47-.37-.91-.51-1.3-.07-.2-.12-.36-.17-.55-.05-.19-.11-.37-.15-.54-.13-.45-.23-.92-.32-1.39.81.26,2.11.68,1.5-.57-.16-.33-.95-.61-1.75-.82-.07-.47-.14-.94-.21-1.4-.2-1.4-.42-2.77-.81-3.94-.22-.66-.5-1.25-.83-1.73,1.16.42,2.31.8,3.45,1.15l.36,1.5.62-1.05c2.2,1.18,4.19,2.67,5.91,4.22.25.22.49.45.72.67.7.67,1.36,1.35,1.95,2.02.4.44.77.88,1.12,1.31.52.64.98,1.26,1.38,1.83.72,1.04,1.4,2.1,2.08,3.17.01.19.02.37.04.54.01.18.03.34.04.51.02.24.04.47.06.67,0,.07.01.13.02.19.02.24.04.44.06.58.01.14.02.21.02.21,0,0,.04-.17.12-.46.08-.29.19-.69.33-1.16,1.28,1.99,2.58,3.95,4.15,5.71h0s.09.1.26.3c.04.05.09.1.14.16.05.06.11.13.17.2.12.14.27.3.44.47.33.35.74.77,1.23,1.23.24.24.51.47.79.72.28.25.59.51.91.77.64.53,1.36,1.07,2.13,1.62.78.55,1.61,1.11,2.49,1.66.88.55,1.8,1.1,2.75,1.63.95.54,1.91,1.07,2.89,1.59.97.52,1.94,1.04,2.9,1.55.96.51,1.92,1,2.86,1.45,1.88.9,3.73,1.63,5.37,2.09.41.11.8.22,1.2.3.2.04.39.08.57.12.18.03.35.06.51.09.08.01.16.03.24.04l.15.02.15.02c.19.02.38.03.56.03.07,0,.15-.01.22-.02-3.73,1.36-8.32,1.74-11.96.86-1.37-.33-2.68-.81-3.96-1.38-.96-.43-1.9-.91-2.82-1.41-.31-.17-.62-.34-.92-.52.42-.03.83-.07,1.23-.13.66-.09,1.27-.22,1.77-.36.43-.11.78-.22,1.02-.31.24-.08.38-.13.38-.13,0,0-.14.02-.4.05-.06,0-.13.01-.21.02-.23.02-.51.04-.84.06-.87.04-2.02-.02-3.13-.21-1.11-.2-2.18-.53-2.94-.85-.06-.02-.11-.05-.17-.07-.39-.23-.78-.46-1.18-.69-.39-.23-.79-.45-1.18-.67-.52-.29-1.04-.57-1.57-.84-1.05-.55-2.12-1.06-3.2-1.56-1.08-.5-2.16-.98-3.26-1.45-1.64-.7-3.29-1.38-4.93-2.07ZM59.4,60.12c-.27.84-.67,1.64-1.17,2.39-.12.03-.26.06-.42.07-.11,0-.23,0-.35,0h-.09s-.02,0-.02,0h0s.03,0,.01,0h-.01s-.06,0-.06,0c-.04,0-.09-.01-.13-.02l.97-1.01-1.84.9c-.09-.01-.17-.03-.26-.04-.18-.03-.36-.06-.55-.1.03-.06.05-.11.08-.17.06-.13.12-.26.17-.38.05-.12.09-.23.13-.33.07-.19.12-.32.12-.32,0,0-.02.02-.07.07-.09.08-.24.24-.43.41-.09.08-.2.17-.3.26-.14.11-.28.22-.41.31-.32-.07-.64-.15-.97-.25-.33-.09-.67-.19-1.02-.3l1.69-2.11-2.6,1.8c-.4-.14-.8-.29-1.21-.44l.89-1.74-1.69,1.43c-.05-.02-.11-.04-.16-.06-.66-.27-1.33-.56-2-.87.01-.02.02-.03.04-.05.21-.28.58-.62.98-.95.1-.08.2-.17.3-.26.29-.26.57-.52.75-.76.06-.08.12-.15.16-.22.04-.07.08-.13.11-.18.05-.1.09-.16.09-.16,0,0-.04.05-.12.14-.08.08-.19.19-.34.31-.22.18-.53.36-.87.54-.11.06-.23.12-.34.18-.47.23-.95.49-1.29.77-.12.09-.22.18-.3.27-.21-.1-.42-.19-.63-.29.02-.22.07-.56.15-.91.07-.29.16-.58.24-.79.08-.21.14-.36.14-.36,0,0-.45.42-.82.94-.15.2-.28.4-.39.58-.04.06-.07.12-.1.17-.54-.25-1.07-.5-1.61-.75-.08-.04-.16-.07-.23-.11.03-.23.1-.64.21-1.04.16-.62.44-1.23.44-1.23,0,0-.27.26-.57.62-.05.06-.1.12-.15.19-.05.07-.1.13-.15.2-.24.31-.44.65-.57.88-.56-.27-1.13-.54-1.68-.81.08-.23.19-.54.31-.85.23-.6.52-1.18.52-1.18,0,0-.48.44-.93.92-.06.07-.13.13-.19.2-.12.13-.23.26-.33.37-.05.06-.1.11-.14.16-.65-.33-1.29-.66-1.91-1,.06-.17.19-.5.36-.82.12-.23.25-.46.36-.63.03-.04.05-.08.07-.11.07-.1.11-.16.11-.16,0,0-.36.19-.75.47-.06.04-.11.08-.17.12-.18.13-.36.28-.5.4-.07.06-.13.12-.19.17s-.09.09-.12.12c-.64-.36-1.25-.72-1.83-1.08l1.42-1.28-1.25.41c1.12-.59,2.26-1.24,3.25-1.87-.07.1-.13.21-.19.32s-.12.22-.18.33c-.17.34-.3.71-.39,1.07-.03.12-.05.25-.07.37-.03.25-.04.49-.02.73.11-.09.22-.17.34-.26.12-.09.24-.17.36-.25.74-.5,1.58-.97,2.33-1.35-.34,1.17-.59,2.64-.93,3.81.91-.79,1.82-2.03,2.73-2.81-.2,1.2-.14,2.54-.1,3.75.24-.37.54-.76.88-1.14.56-.64,1.21-1.25,1.83-1.68-.47,1.14-.71,2.67-.52,3.94.03.18.06.36.11.53.46-.85,1.09-1.74,1.78-2.54.41-.48.85-.94,1.28-1.35-.1.28-.17.56-.22.84-.03.14-.05.28-.07.42-.1.7-.1,1.41-.08,2.14,1.31-.65,2.6-1.48,3.65-2.46-.48,1.28-.76,2.77-.85,4.13.33-.32.7-.63,1.08-.94.25-.21.51-.41.77-.62.25-.21.5-.42.74-.62.12-.1.23-.21.34-.31-.62,1.31-1.22,2.72-1.84,4.03.71-.41,1.38-.87,2.02-1.37.32-.25.63-.51.93-.78.3-.27.59-.55.87-.84-.29,1.23-.6,2.61-.89,3.84.77-.95,1.62-1.84,2.55-2.66-.29.99-.69,2.13-.98,3.12,1.07-.6,2.07-1.32,2.98-2.12ZM23.74,35.55c-.28-.03-.56.02-.83-.07-.22-.07-.4-.25-.52-.45-.04-.07-.07-.14-.1-.22-.05-.15-.08-.3-.09-.46,0-.08,0-.16,0-.24s0-.16,0-.24c0,.05,3.2.54,3.54,1.24.77,1.57-1.51.49-2,.43ZM43.92,50.57c-.6-.58-1.16-1.19-1.67-1.81.53.63,1.08,1.24,1.67,1.81ZM34.62,36.22c.14.32.28.64.41.97.27.66.54,1.33.82,2.01.14.34.29.67.44,1.01.29.67.6,1.33.93,1.97.16.32.33.64.5.95.17.31.34.61.51.91.68,1.19,1.38,2.27,2.03,3.16.63.9,1.19,1.63,1.6,2.13.36.43.59.7.64.76,0,0,.01.01.01.01,0,0-.26-.26-.7-.73-.44-.47-1.06-1.15-1.76-2.01-.69-.87-1.43-1.93-2.17-3.1-.72-1.19-1.42-2.5-2.02-3.85-.59-1.36-1.08-2.75-1.62-4.01-.26-.64-.54-1.23-.81-1.81-.13-.28-.26-.55-.43-.77-.17-.22-.37-.39-.61-.51-.46-.26-.96-.37-1.39-.47-.44-.1-.82-.16-1.14-.21-.64-.09-1-.14-1-.14,0,0,.37.02,1.01.06.32.02.71.06,1.16.12.45.07.96.14,1.49.38.07.03.13.06.2.1.19.12.38.27.53.46.1.12.19.26.27.39s.15.28.23.42c.29.55.61,1.16.89,1.79Z"/>
      <path class="cls-1" d="M63.24,13.67c.53.09.98.08,1.29.1.31,0,.49-.01.49-.01,0,0-.17-.07-.45-.18-.1-.03-.22-.08-.34-.13.24-.01.47-.05.66-.15.14-.07.26-.17.35-.3.03-.04.05-.09.07-.15.21-.54-.24-1.11-.69-1.48-2.15-1.78-5.1-2.85-7.88-2.58-.08,0-.17.02-.26.04-.26.07-.51.19-.6.4-.07-.06-.13-.13-.18-.19-.1-.11-.16-.21-.19-.29-.03-.08-.05-.12-.05-.12,0,0,0,.05,0,.13,0,.09.02.21.07.37.05.15.15.34.28.52.13.19.3.39.5.57.39.36.84.81,1.4,1.18.55.38,1.17.75,1.8,1.09.65.3,1.32.56,1.96.77.64.21,1.26.3,1.79.4ZM61.51,11.75c-.07-.04-.13-.08-.18-.12-.1-.08-.19-.16-.29-.24-.27-.25-.51-.52-.8-.75-.21-.17-.45-.31-.61-.51-.04-.05-.08-.1-.1-.15-.07-.14-.08-.28-.01-.4.01-.02.02-.05.04-.07,0,0,.03-.01.05-.01.01,0,.03,0,.05,0,.01,0,.02,0,.04,0,.02,0,.05,0,.08.01.01,0,.03,0,.04,0,.05.01.1.02.15.04.01,0,.03,0,.04.01.04.01.09.03.14.04.03,0,.06.02.08.03.04.01.08.03.13.04.03.01.06.02.1.03.04.02.09.03.14.05.03.01.07.03.11.04.05.02.09.03.14.05.04.01.08.03.12.05.05.02.1.04.15.06.04.02.08.03.12.05.05.02.1.04.15.07.04.02.08.04.13.06.05.02.11.05.16.07.04.02.08.04.13.06.05.03.11.05.16.08.04.02.08.04.13.06.06.03.11.06.17.09.04.02.08.04.12.06.06.03.12.06.17.1.04.02.07.04.11.06.06.04.13.07.19.11.03.02.06.04.09.05.09.06.18.11.26.17.04.03.08.06.13.11.25.25.49.72.33.96-.03.04-.06.08-.11.1-.06.03-.14.05-.21.07-.02,0-.05,0-.08,0-.06,0-.12,0-.18,0-.03,0-.06,0-.1,0-.07,0-.13-.02-.2-.03-.03,0-.06-.01-.08-.02-.1-.02-.2-.05-.3-.09-.01,0-.02,0-.03-.01-.09-.03-.18-.07-.26-.1-.03-.01-.06-.03-.09-.04-.06-.03-.13-.06-.19-.09-.03-.01-.06-.03-.09-.04-.06-.03-.11-.06-.16-.09-.02-.01-.05-.03-.07-.04Z"/>
      <path class="cls-1" d="M42.48,14.28c-.01-.59-.17-1.17-.5-1.68-.57-.88-1.56-1.43-2.58-1.69-2.4-.61-5.75-1.17-6.87,1.68-.11.29-.19.58-.25.88-.12-.51-.21-.95-.26-1.29-.04-.18-.08-.33-.1-.45,0-.04-.02-.08-.02-.11-.01-.07-.02-.12-.03-.15,0-.03,0-.05,0-.05,0,0,0,.02-.02.05-.03.1-.11.34-.2.71-.1.49-.21,1.2-.28,2.07,0,.65.02,1.38.11,2.16.03.26.06.53.11.8.03.14.06.27.09.4.09.4.2.81.37,1.27.12.31.28.64.52.95.24.32.58.6.93.79.72.34,1.42.38,2.03.38.61-.01,1.19-.07,1.74-.17,1.11-.26,2.07-.69,2.83-1.13.74-.49,1.28-.99,1.63-1.35.08-.1.16-.18.22-.26.06-.08.11-.14.15-.2.08-.11.12-.16.12-.16,0,0-.06.03-.19.09-.12.06-.3.14-.53.23-.22.1-.49.22-.8.33-.16.06-.32.11-.5.17-.18.05-.36.1-.56.15-.15.05-.3.09-.46.13.44-.2.87-.43,1.26-.71.13-.09.26-.2.38-.3.28-.24.53-.51.74-.81.14-.2.27-.41.39-.63.06-.11.11-.22.16-.34.24-.57.37-1.17.35-1.76ZM39.4,12.22c.1.03.19.06.29.09.38.14.74.32,1.05.56.08.06.15.12.22.19.48.45.76,1.06.61,1.82-.05.27-.16.52-.3.76-.14.23-.31.45-.51.64-.13.13-.28.24-.43.34-.3.2-.63.36-.98.48-.17.06-.35.11-.53.15-.18.04-.36.08-.54.11h0c-.08.01-.15.02-.23.03-.02,0-.05,0-.07,0-.06,0-.13,0-.19,0-.01,0-.03,0-.04,0-.07,0-.15-.02-.22-.04-.01,0-.03-.01-.04-.02-.07-.03-.14-.06-.2-.11-.22-.18-.32-.47-.39-.74-.02-.07-.04-.15-.05-.22-.12-.45-.22-.91-.31-1.37-.01-.06-.03-.12-.04-.19-.01-.07-.03-.15-.04-.22-.01-.07-.02-.15-.03-.22-.02-.15-.03-.3-.03-.45,0-.15.01-.3.04-.44s.07-.28.14-.41c.04-.08.09-.16.15-.23.02-.02.04-.04.06-.07.04-.05.08-.09.12-.13.03-.02.05-.04.08-.07.04-.03.09-.07.13-.1.03-.02.06-.04.1-.06.05-.03.1-.05.14-.07.03-.02.07-.03.11-.04.05-.02.1-.04.16-.05.04-.01.07-.02.11-.03.05-.01.11-.02.17-.03.04,0,.07-.01.11-.02.06,0,.12-.01.18-.01.03,0,.06,0,.09,0,.09,0,.19,0,.28.01.09.01.18.02.28.04.19.03.38.08.57.13Z"/>
      <path class="cls-1" d="M18.25,8.32c.13.44.31.89.52,1.33.27.41.57.79.88,1.12.32.33.68.56.99.74.15.1.3.17.44.22.14.05.26.1.36.13.05.01.1.02.14.03.04,0,.07.02.1.02.05.01.08.02.08.02,0,0-.08-.09-.22-.24-.15-.13-.33-.37-.55-.61-.2-.19-.37-.46-.57-.72.12.1.25.2.38.3.13.1.26.19.4.27.63.38,1.33.67,1.84,1.2.32.33.53.81.53,1.25,0,.27-.08.53-.25.74-.12.14-.28.25-.44.36-.08.05-.16.1-.24.16-.08.05-.15.11-.22.18-.24.22-.36.51-.41.82-.01.1-.02.21-.01.32-.05-.21-.07-.43-.05-.63,0-.1.01-.19.02-.28,0-.09.01-.18.02-.26.02-.17.03-.32.06-.44.03-.25.05-.39.05-.39,0,0-.05.07-.13.19-.03.04-.06.09-.1.14-.09.16-.24.37-.36.65-.04.09-.08.19-.11.3-.01.05-.03.11-.04.17-.07.29-.12.63-.07,1,.02.15.06.3.12.45.03.08.07.15.11.22.12.22.29.42.47.58.24.22.5.38.75.53.5.25,1.01.51,1.52.71.51.2,1.06.26,1.5.26.45,0,.82-.12,1.05-.21.23-.11.35-.19.35-.19,0,0-.14.02-.39,0-.24,0-.58-.06-.95-.15-.1-.02-.21-.05-.31-.09.03,0,.05,0,.08.01.55.08,1.38-3.7,1.44-4.13.22-1.49.15-3.03-.22-4.5-.08-.34-.16-.63-.25-.88-.18-.51-.39-.86-.8-1.14-.2-.14-.45-.26-.76-.37-1.55-.54-3.32-.74-4.92-1.11-.47-.11-1.04-.19-1.38.15-.06.06-.1.12-.13.19-.07-.2-.13-.37-.16-.51-.06-.2-.1-.31-.1-.31,0,0-.02.06-.05.18-.01.04-.03.08-.04.13-.02.1-.05.23-.07.37-.01.07-.02.15-.03.23s0,.17,0,.26c0,.36.02.79.14,1.23ZM26.72,12.94c0,.08,0,.17-.07.22-.03.02-.06.02-.09.02-.03,0-.07,0-.1-.02-.51-.14-.98-.44-1.27-.88-.02-.03-.04-.07-.06-.11,0-.01-.01-.03-.02-.05-.01-.03-.03-.06-.04-.09,0-.02-.01-.04-.02-.06,0-.03-.02-.06-.03-.1,0-.02-.01-.05-.02-.07,0-.03-.01-.07-.02-.1,0-.03,0-.05-.01-.08,0-.04,0-.07-.01-.11,0-.03,0-.06,0-.08,0-.04,0-.07,0-.11,0-.03,0-.06,0-.08,0-.04,0-.07,0-.11,0-.03,0-.06,0-.08,0-.04,0-.07.01-.11,0-.03,0-.05.01-.08,0-.03.01-.07.02-.1,0-.03.01-.05.02-.08,0-.03.02-.06.03-.1,0-.02.02-.05.03-.07.01-.03.03-.06.04-.08.01-.02.02-.04.04-.06.02-.03.04-.05.05-.07.01-.02.03-.04.04-.05.02-.02.04-.04.07-.06.02-.01.03-.03.05-.04.03-.02.06-.03.09-.04.02,0,.04-.02.06-.02.03,0,.07-.01.11-.02.02,0,.03,0,.05,0,.06,0,.12,0,.19.02.05.01.11.03.15.06.1.05.18.13.25.22.36.48.43,1.44.45,2.1,0,.2,0,.37,0,.49Z"/>
      <path class="cls-1" d="M5.76,11.17c-.17.24-.41.55-.49.98-.05.31-.06.67.05,1.02.04.12.08.24.15.35.07.11.16.21.25.3.27.26.59.4.84.51.35.14.65.17.88.28.22.1.42.2.53.32.12.11.16.2.16.2,0,0,.03-.1,0-.29-.04-.18-.14-.46-.38-.68-.07-.07-.16-.14-.25-.21-.09-.07-.18-.14-.28-.2.7.22,1.31.75,1.6,1.43.18.42.23.88.18,1.33-.03.22-.09.44-.17.65-.08.21-.2.41-.34.59-.1.13-.21.25-.33.38-.17.19-.35.37-.5.57-.14.2-.25.41-.28.65-.02-.03-.05-.07-.06-.1-.13-.24-.27-.47-.34-.63-.09-.16-.14-.26-.14-.26,0,0-.02.1-.05.29,0,.18-.06.45,0,.78.06.27.14.65.41.96.04.04.08.09.13.13.09.09.2.16.31.22.32.18.7.27,1.03.31.45,0,.86-.04,1.25-.1.39-.06.74-.22,1.03-.34.29-.12.51-.29.66-.39.14-.12.23-.19.23-.19,0,0-.06,0-.17,0-.04,0-.08,0-.12,0-.18.02-.44,0-.73.03-.09.01-.2,0-.3.01.99-.63,1.81-1.51,2.38-2.54.14-.26.27-.52.38-.79.11-.27.21-.55.29-.83.08-.28.14-.57.18-.86s.07-.58.07-.88c0-.46-.05-1.01-.17-1.58-.06-.29-.14-.58-.23-.87-.09-.29-.2-.58-.33-.86-.13-.28-.27-.55-.43-.8-.48-.76-1.1-1.35-1.87-1.56-2.21-.59-3.78,1.75-4.67,3.51.02-.21.05-.41.11-.6.06-.19.1-.38.15-.52.01-.05.03-.09.04-.13.02-.09.04-.15.05-.2.01-.05.02-.07.02-.07,0,0-.08.06-.22.16-.12.12-.34.26-.52.51ZM13.37,14.88c-.03.28-.08.54-.12.74-.02.07-.04.13-.06.19-.04.11-.09.21-.17.28,0,0,0,0,0,0-.04.03-.08.06-.13.08-.01,0-.03,0-.04.01-.03.01-.07.02-.1.02-.02,0-.05,0-.07,0-.01,0-.02,0-.03,0-.04,0-.08-.02-.11-.05-.09-.06-.14-.17-.16-.28,0-.04-.02-.07-.03-.11-.1-.47-.16-.94-.19-1.42-.01-.24-.02-.48-.02-.72,0-.24.01-.48.03-.72,0-.07.02-.15.03-.22,0-.04.02-.07.03-.11.03-.07.06-.14.1-.19.06-.08.15-.14.25-.14.02,0,.05,0,.07,0,.01,0,.03,0,.04,0,.02,0,.04.02.06.03.01,0,.03,0,.04.02.02.01.04.03.06.04,0,0,.02.01.03.02.03.02.06.05.08.08.46.49.5,1.58.41,2.43Z"/>
      <path class="cls-1" d="M48.16,14.12c-.4.57-.79,1.15-1.18,1.73,0,0,0,0,0,0,.19-.1.38-.18.5-.26.1-.05.16-.09.19-.11,0,0,.01,0,.01,0,0,0,0,0,0,.02,0,.03-.02.11-.05.22-.05.14-.12.36-.29.56-.17.2-.39.45-.7.6-.16.07-.31.14-.52.19-.2.04-.46.07-.76-.06-.04-.02-.08-.05-.11-.07-.24-.18-.34-.42-.39-.61-.05-.19-.06-.35-.07-.5-.01-.16,0-.31.01-.45,0-.07.02-.14.03-.21.01-.07.02-.13.03-.19.04-.25.14-.45.18-.59.02-.03.03-.06.05-.09.04-.08.06-.12.06-.12,0,0,.02.05.05.13.01.03.02.06.03.09.03.12.1.28.15.46.31-.96.75-1.88,1.25-2.76.12-.21.25-.43.43-.58.19-.16.44-.25.68-.18.2.06.35.22.44.41.09.19.13.39.16.6.11.61.2,1.26-.18,1.79Z"/>
      <path class="cls-1" d="M11.27,30.52c.33.21.7.45,1.09.75.2.14.4.29.61.45.42.31.86.66,1.3,1.04.22.19.45.38.67.59.22.2.45.42.67.63.68.65,1.36,1.34,2.01,2.06.84.98,1.64,2,2.35,2.99.35.5.67.99.96,1.46.15.24.28.47.42.69.13.23.26.45.37.66.24.42.44.82.61,1.17.17.35.32.66.43.92.22.52.35.81.35.81,0,0-.17-.27-.47-.75-.14-.24-.32-.53-.54-.86-.21-.33-.45-.7-.72-1.1-.13-.2-.27-.41-.41-.62-.29-.42-.62-.87-.96-1.33-.17-.23-.35-.47-.52-.71-.72-.95-1.53-1.94-2.38-2.88-.21-.24-.42-.48-.64-.71-.21-.23-.43-.46-.65-.69-.43-.45-.87-.89-1.3-1.3-.87-.81-1.68-1.59-2.42-2.2-.36-.31-.7-.59-1-.84-.3-.25-.56-.47-.79-.64-.33-.26-.55-.44-.64-.52-.03-.02-.05-.04-.05-.04,0,0,.28.16.77.44.24.14.53.32.86.54Z"/>
      <path class="cls-1" d="M50.3,64.84c-.62-.03-1.29-.07-1.95-.14-.66-.1-1.31-.23-1.92-.36-.3-.07-.59-.15-.87-.23-.14-.04-.27-.08-.4-.13s-.25-.08-.37-.12c-.47-.15-.85-.33-1.12-.44-.26-.12-.41-.2-.41-.2,0,0,.16.03.45.07.28.06.69.11,1.18.2.12.02.25.05.38.07.39.06.83.12,1.28.2.6.1,1.25.19,1.89.26.64.1,1.29.17,1.9.23.3.02.6.06.88.09.28.03.54.06.79.07.24.02.47.04.67.06.2.02.37.04.52.05.07,0,.14.01.19.02s.1.01.14.02c.08,0,.12.01.12.01,0,0-.16.03-.45.08-.29.04-.7.12-1.19.14-.5.03-1.08.07-1.7.05Z"/>
      <path class="cls-1" d="M21.45,25.59c.05,0,.18,0,.38.02.13,0,.3.01.49,0,.19,0,.41,0,.66-.04.12,0,.25-.02.39-.03.13-.01.28-.03.42-.05.88-.13,1.95-.39,3.17-.73.2-.05.41-.11.62-.17.43-.12.87-.25,1.33-.37.69-.18,1.43-.35,2.2-.47.52-.08,1.05-.13,1.6-.14,2.19-.06,4.48.35,6.69.87,2.21.56,4.37,1.2,6.44,1.53,2.06.34,4.01.44,5.65.12,1.02-.18,1.92-.46,2.65-.78.29-.13.56-.26.79-.39.12-.07.23-.13.33-.2.42-.26.73-.49.93-.66.1-.09.18-.15.23-.2.05-.04.08-.07.08-.07,0,0,0,0-.02.02-.04.04-.12.13-.26.28-.18.19-.47.47-.86.78-.79.6-2.07,1.36-3.77,1.75-1.69.41-3.76.5-5.89.18-2.14-.3-4.35-.91-6.54-1.42-2.18-.55-4.38-.99-6.45-.97-.77,0-1.53.07-2.25.17-.73.1-1.43.24-2.1.38-.45.09-.88.19-1.3.28-1.67.37-3.11.5-4.11.48-.25,0-.47-.03-.67-.05-.1,0-.19-.02-.27-.03-.08-.01-.15-.02-.22-.04-.13-.02-.23-.04-.3-.05-.07-.01-.1-.02-.1-.02,0,0,0,0,.03,0Z"/>
      <path class="cls-1" d="M22.5,53.02c-.76-.35-1.37-.68-1.82-.89-.44-.22-.69-.35-.69-.35,0,0,.27.06.75.17.47.13,1.16.29,1.95.56.79.27,1.73.56,2.7.96.97.4,2,.85,3.02,1.31.25.13.5.26.75.38.74.39,1.47.78,2.16,1.16.92.51,1.73,1.06,2.43,1.52.71.46,1.25.9,1.65,1.18.19.15.34.27.45.35s.16.13.16.13c0,0-.06-.03-.18-.08-.12-.05-.3-.13-.52-.23-.44-.22-1.08-.5-1.83-.87-.74-.38-1.63-.77-2.56-1.25-.93-.47-1.93-.95-2.93-1.41-.99-.5-1.99-.98-2.93-1.42-.95-.43-1.81-.89-2.57-1.23Z"/>
      <path class="cls-1" d="M33.13,53.2c.56.43,1.1.82,1.6,1.16.17.11.33.22.49.33.15.11.3.21.45.3.28.19.54.36.76.5.11.07.21.14.31.2.09.06.18.11.25.16.22.14.33.21.33.21,0,0-.23-.11-.62-.3-.4-.19-.96-.47-1.62-.85-.66-.38-1.4-.85-2.19-1.38-.77-.55-1.57-1.18-2.33-1.84-.38-.34-.74-.69-1.09-1.04-.35-.35-.68-.71-1-1.06-.62-.72-1.16-1.42-1.6-2.03-.43-.62-.77-1.16-.98-1.54-.22-.38-.34-.6-.34-.6,0,0,.15.2.42.55.26.35.65.85,1.13,1.42.47.59,1.05,1.24,1.69,1.91.64.68,1.35,1.38,2.11,2.03.74.67,1.51,1.3,2.26,1.86Z"/>
      <path class="cls-1" d="M57.59,17.43s.06.03.09.05c.09.06.23.13.37.24.05.03.09.07.14.12.18.17.42.36.61.62.18.25.37.53.55.82.07.15.13.31.19.46.06.15.11.31.17.46.1.3.12.6.15.85.04.25,0,.47,0,.62,0,.04-.01.07-.02.1-.01.09-.02.14-.02.14,0,0,0,0,0-.01-.01-.02-.04-.05-.07-.1-.02-.02-.04-.05-.06-.08-.07-.12-.22-.29-.33-.5-.11-.21-.29-.44-.41-.7-.13-.26-.28-.53-.44-.79-.12-.28-.26-.56-.4-.82-.14-.25-.22-.53-.33-.74-.1-.21-.15-.43-.21-.56-.02-.07-.04-.13-.05-.17s-.02-.06-.02-.06c0,0,.04.02.12.06Z"/>
      <path class="cls-1" d="M68.61,19.27s-.03-.36-.08-.91c0-.13-.02-.28-.03-.43s-.03-.32-.05-.48c-.03-.33-.07-.69-.12-1.04-.03-.35-.08-.71-.14-1.04-.04-.33-.09-.64-.15-.91-.09-.54-.14-.9-.14-.9,0,0,.19.31.41.82.1.26.2.56.3.9.08.34.15.7.21,1.06.03.37.05.74.06,1.08-.02.35-.04.67-.07.94-.08.55-.19.9-.19.9Z"/>
      <path class="cls-1" d="M42.03,23.63s.13.06.37.16c.12.05.26.11.42.18.16.07.35.14.55.21.4.16.88.31,1.4.44.52.14,1.08.25,1.64.32.56.08,1.13.12,1.67.13.53,0,1.04,0,1.46-.06.32-.02.61-.06.83-.09.08-.01.15-.02.21-.03.25-.04.4-.06.4-.06,0,0-.14.05-.37.15-.06.02-.13.05-.2.07-.15.05-.32.11-.51.16-.1.03-.2.05-.31.08-.43.1-.94.16-1.5.21-.55.02-1.15,0-1.74-.07-.59-.09-1.16-.23-1.7-.39-.52-.19-1-.39-1.39-.6-.39-.21-.7-.41-.9-.56-.21-.15-.32-.24-.32-.24Z"/>
      <path class="cls-1" d="M29.95,5.26c.8.37,1.6.74,2.35,1.09.75.35,1.45.65,2.07.88.61.24,1.14.4,1.51.5.37.1.59.15.59.15,0,0-.22-.01-.61-.07-.39-.05-.93-.15-1.58-.33-.64-.19-1.38-.45-2.15-.75-.38-.16-.77-.33-1.17-.51-.4-.17-.81-.35-1.21-.52-.8-.37-1.61-.71-2.38-.98-.77-.29-1.51-.49-2.15-.62-.64-.14-1.19-.19-1.57-.21-.19-.02-.34-.01-.45-.02-.1,0-.16,0-.16,0,0,0,.01,0,.04,0,.03,0,.07,0,.12-.02.1-.01.25-.04.45-.05.39-.03.95-.04,1.62.03.67.08,1.44.25,2.24.49.8.25,1.63.58,2.45.93Z"/>
    </g>
  </g>
</svg>